<svg width="24" height="24" viewBox="0 0 24 24" fill="none" xmlns="http://www.w3.org/2000/svg">
<path d="M8.9992 12C8.9992 10.3432 10.3427 8.99976 12.0005 8.99976C13.6583 8.99976 15.0026 10.3432 15.0026 12C15.0026 13.6568 13.6583 15.0002 12.0005 15.0002C10.3427 15.0002 8.9992 13.6568 8.9992 12ZM7.37635 12C7.37635 14.5524 9.44659 16.6214 12.0005 16.6214C14.5544 16.6214 16.6247 14.5524 16.6247 12C16.6247 9.4476 14.5544 7.37861 12.0005 7.37861C9.44659 7.37861 7.37635 9.4476 7.37635 12ZM15.7271 7.19537C15.727 7.40897 15.7903 7.6178 15.909 7.79546C16.0276 7.97311 16.1964 8.1116 16.3938 8.19342C16.5912 8.27525 16.8085 8.29672 17.0181 8.25513C17.2278 8.21354 17.4204 8.11076 17.5716 7.95978C17.7228 7.8088 17.8258 7.6164 17.8675 7.40692C17.9093 7.19744 17.888 6.98028 17.8063 6.7829C17.7246 6.58552 17.5861 6.4168 17.4085 6.29805C17.2308 6.17931 17.0219 6.11589 16.8082 6.1158H16.8077C16.5213 6.11593 16.2465 6.2297 16.0439 6.43212C15.8413 6.63454 15.7273 6.90905 15.7271 7.19537ZM8.36234 19.3258C7.48434 19.2858 7.00713 19.1397 6.69 19.0162C6.26955 18.8526 5.96956 18.6578 5.65416 18.343C5.33875 18.0282 5.14352 17.7287 4.98056 17.3085C4.85693 16.9917 4.71068 16.5146 4.67077 15.6372C4.62711 14.6885 4.61839 14.4035 4.61839 12.0001C4.61839 9.59664 4.62783 9.31246 4.67077 8.36299C4.71075 7.48553 4.85808 7.00939 4.98056 6.69166C5.14424 6.27146 5.33919 5.97166 5.65416 5.65644C5.96913 5.34122 6.26883 5.1461 6.69 4.98324C7.00699 4.85969 7.48434 4.71353 8.36234 4.67364C9.31158 4.63001 9.59672 4.6213 12.0005 4.6213C14.4043 4.6213 14.6897 4.63073 15.6398 4.67364C16.5178 4.7136 16.9942 4.86084 17.3121 4.98324C17.7326 5.1461 18.0325 5.34166 18.348 5.65644C18.6634 5.97122 18.8579 6.27146 19.0216 6.69166C19.1452 7.00846 19.2914 7.48553 19.3313 8.36299C19.375 9.31246 19.3837 9.59664 19.3837 12.0001C19.3837 14.4035 19.375 14.6877 19.3313 15.6372C19.2914 16.5146 19.1444 16.9915 19.0216 17.3085C18.8579 17.7287 18.6629 18.0285 18.348 18.343C18.033 18.6575 17.7326 18.8526 17.3121 19.0162C16.9951 19.1397 16.5178 19.2859 15.6398 19.3258C14.6905 19.3694 14.4054 19.3781 12.0005 19.3781C9.59564 19.3781 9.31129 19.3694 8.36234 19.3258ZM8.28777 3.0545C7.32909 3.09814 6.674 3.25006 6.10191 3.47254C5.50942 3.70229 5.00786 4.01052 4.50666 4.51063C4.00545 5.01074 3.69783 5.5128 3.46794 6.10493C3.24532 6.67704 3.09331 7.33138 3.04965 8.28948C3.00528 9.2491 2.99512 9.55589 2.99512 12C2.99512 14.4441 3.00528 14.7509 3.04965 15.7105C3.09331 16.6687 3.24532 17.323 3.46794 17.8951C3.69783 18.4868 4.00552 18.9895 4.50666 19.4894C5.00779 19.9893 5.50942 20.2971 6.10191 20.5275C6.67508 20.7499 7.32909 20.9019 8.28777 20.9455C9.24847 20.9891 9.55494 21 12.0005 21C14.4461 21 14.7531 20.9898 15.7133 20.9455C16.672 20.9019 17.3267 20.7499 17.8991 20.5275C18.4912 20.2971 18.9932 19.9895 19.4944 19.4894C19.9956 18.9893 20.3026 18.4868 20.5331 17.8951C20.7557 17.323 20.9084 16.6686 20.9514 15.7105C20.995 14.7502 21.0052 14.4441 21.0052 12C21.0052 9.55589 20.995 9.2491 20.9514 8.28948C20.9077 7.3313 20.7557 6.67668 20.5331 6.10493C20.3026 5.51316 19.9948 5.01154 19.4944 4.51063C18.994 4.00973 18.4913 3.70229 17.8998 3.47254C17.3267 3.25006 16.6719 3.09742 15.714 3.0545C14.7538 3.01087 14.4468 3 12.0012 3C9.55566 3 9.24847 3.01015 8.28777 3.0545Z" fill="black"/>
</svg>
